<svg height="512px" viewBox="0 0 512 512" width="512px" xmlns="http://www.w3.org/2000/svg"><path d="m112.570312 160.347656 145.324219-145.320312c8.785157-7.765625 22.09375-7.355469 30.382813.933594 8.289062 8.289062 8.699218 21.597656.933594 30.382812l-33.621094 33.535156c-6.386719 6.402344-8.871094 15.726563-6.523438 24.457032 2.351563 8.734374 9.183594 15.550781 17.921875 17.878906 8.738281 2.332031 18.054688-.179688 24.441407-6.582032l33.535156-33.535156c8.660156-8.625 22.660156-8.625 31.320312 0 8.53125 8.695313 8.53125 22.621094 0 31.316406l-83.054687 81.511719zm0 0" fill="#ad1457"/><path d="m179.21875 145.074219c-3.453125 0-6.5625-2.078125-7.882812-5.269531-1.320313-3.1875-.59375-6.855469 1.847656-9.296876l34.132812-34.132812c3.347656-3.234375 8.671875-3.1875 11.964844.105469 3.289062 3.289062 3.335938 8.613281.101562 11.960937l-34.132812 34.132813c-1.601562 1.601562-3.769531 2.5-6.03125 2.5zm0 0" fill="#e57e25"/><path d="m369.679688 253.105469 29.015624-29.011719c8.78125-7.765625 22.089844-7.355469 30.382813.933594 8.289063 8.289062 8.699219 21.597656.933594 30.382812l-33.621094 33.535156c-6.386719 6.402344-8.875 15.726563-6.523437 24.460938 2.351562 8.730469 9.183593 15.546875 17.921874 17.875 8.738282 2.332031 18.054688-.179688 24.441407-6.578125l33.535156-33.539063c8.660156-8.625 22.660156-8.625 31.316406 0 8.535157 8.695313 8.535157 22.621094 0 31.320313l-144.042969 141.480469-97.023437-101.289063zm0 0" fill="#ad1457"/><path d="m349.882812 384.007812c-3.449218 0-6.5625-2.078124-7.882812-5.269531-1.320312-3.1875-.589844-6.855469 1.851562-9.296875l17.066407-17.066406c3.347656-3.234375 8.667969-3.1875 11.960937.105469 3.292969 3.289062 3.339844 8.613281.105469 11.960937l-17.066406 17.066406c-1.601563 1.601563-3.769531 2.5-6.035157 2.5zm0 0" fill="#e57e25"/><path d="m375.484375 401.074219c-3.453125 0-6.5625-2.078125-7.882813-5.269531-1.320312-3.1875-.589843-6.855469 1.847657-9.296876l25.601562-25.597656c3.347657-3.234375 8.671875-3.191406 11.960938.101563 3.292969 3.292969 3.339843 8.613281.105469 11.960937l-25.601563 25.601563c-1.597656 1.601562-3.769531 2.5-6.03125 2.5zm0 0" fill="#e57e25"/><path d="m168.011719 477.917969 194.269531-190.917969c11.597656-11.691406 11.597656-30.546875 0-42.238281-11.660156-11.660157-30.566406-11.660157-42.230469 0l-45.226562 45.226562c-13.328125 13.328125-34.941407 13.328125-48.273438 0-13.328125-13.332031-13.328125-34.945312 0-48.273437l45.226563-45.226563c11.582031-11.699219 11.582031-30.542969 0-42.242187-11.671875-11.640625-30.566406-11.640625-42.238282 0l-196.105468 196.105468.058594.0625" fill="#e91e63"/><path d="m121.789062 262.066406c-2.015624-1.421875-3.902343-3.023437-5.632812-4.777344l-9.8125-9.8125c-12.921875-12.960937-17.964844-31.820312-13.226562-49.496093l3.582031-13.398438c4.738281-17.652343 18.527343-31.441406 36.183593-36.179687l18.941407-5.121094c11.863281-3.199219 24.488281-1.953125 35.5 3.5 2.324219 1.050781 4.554687 2.308594 6.65625 3.753906.191406.117188.363281.261719.511719.425782 2.839843 1.910156 5.445312 4.144531 7.765624 6.65625l9.386719 9.898437c.761719.8125 1.472657 1.667969 2.132813 2.5625" fill="#6a1b9a"/><path d="m200.125 183.730469c2.296875-3.964844 3.503906-8.472657 3.496094-13.054688.066406-7.609375-3.285156-14.84375-9.128906-19.714843-.148438-.164063-.320313-.308594-.511719-.425782-1.976563-1.640625-4.230469-2.914062-6.65625-3.753906-.394531-.242188-.828125-.417969-1.28125-.511719-2.394531-.789062-4.902344-1.195312-7.421875-1.195312-14.140625 0-25.601563 11.460937-25.601563 25.601562 0 14.136719 11.460938 25.597657 25.601563 25.597657 4.277344-.007813 8.480468-1.125 12.203125-3.242188" fill="#4527a0"/><path d="m128.015625 204.808594c0 9.425781-7.640625 17.066406-17.066406 17.066406s-17.066407-7.640625-17.066407-17.066406c0-9.425782 7.640626-17.066406 17.066407-17.066406s17.066406 7.640624 17.066406 17.066406zm0 0" fill="#4527a0"/><path d="m289.382812 358.664062 7.507813-2.046874c18.167969-4.84375 37.53125.660156 50.433594 14.335937l9.386719 9.898437c11.878906 12.570313 16.625 30.277344 12.628906 47.101563l-3.15625 13.3125c-4.382813 18.289063-18.4375 32.707031-36.609375 37.546875l-18.859375 5.035156c-17.675782 4.777344-36.554688-.269531-49.492188-13.226562l-9.8125-9.8125c-12.921875-12.957032-17.964844-31.816406-13.226562-49.492188l.851562-3.160156" fill="#6a1b9a"/><path d="m348.730469 386.292969c0 13.972656-11.324219 25.292969-25.292969 25.292969s-25.292969-11.320313-25.292969-25.292969c0-13.96875 11.324219-25.289063 25.292969-25.289063s25.292969 11.320313 25.292969 25.289063zm0 0" fill="#4527a0"/><path d="m281.617188 443.742188c0 9.425781-7.640626 17.066406-17.066407 17.066406s-17.066406-7.640625-17.066406-17.066406c0-9.425782 7.640625-17.066407 17.066406-17.066407s17.066407 7.640625 17.066407 17.066407zm0 0" fill="#4527a0"/><path d="m145.082031 341.339844c-3.449219 0-6.558593-2.078125-7.878906-5.265625s-.59375-6.859375 1.847656-9.300781l34.132813-34.132813c3.347656-3.234375 8.671875-3.1875 11.960937.105469 3.292969 3.289062 3.339844 8.613281.105469 11.960937l-34.132812 34.132813c-1.601563 1.601562-3.769532 2.5-6.035157 2.5zm0 0" fill="#d25627"/><path d="m187.75 384.007812c-3.449219 0-6.5625-2.078124-7.882812-5.269531-1.320313-3.1875-.589844-6.855469 1.851562-9.296875l42.664062-42.667968c3.347657-3.234376 8.671876-3.1875 11.964844.105468 3.289063 3.292969 3.335938 8.613282.101563 11.960938l-42.664063 42.667968c-1.601562 1.601563-3.773437 2.5-6.035156 2.5zm0 0" fill="#d25627"/><path d="m170.683594 358.40625c-3.449219 0-6.5625-2.078125-7.882813-5.265625-1.320312-3.1875-.589843-6.859375 1.851563-9.300781l17.066406-17.066406c3.347656-3.234376 8.667969-3.1875 11.960938.105468 3.292968 3.292969 3.335937 8.613282.105468 11.960938l-17.070312 17.066406c-1.597656 1.601562-3.769532 2.5-6.03125 2.5zm0 0" fill="#d25627"/><path d="m192.957031 410.207031c-22.191406 1.734375-39.320312 20.238281-39.339843 42.496094-.011719 10.347656 3.785156 20.34375 10.667968 28.074219v.082031c-5.273437 3.996094-11.273437 6.921875-17.664062 8.621094l-45.738282 12.289062c-17.691406 4.703125-36.550781-.371093-49.496093-13.3125l-27.816407-27.820312c-12.945312-12.945313-18.019531-31.800781-13.3125-49.492188l10.238282-38.058593c4.738281-17.65625 18.527344-31.445313 36.183594-36.183594l45.824218-12.285156c18.148438-4.855469 37.503906.613281 50.429688 14.25l26.625 28.246093c10.894531 11.515625 15.84375 27.429688 13.398437 43.09375zm0 0" fill="#6a1b9a"/><g fill="#4527a0"><path d="m162.148438 367.386719c0 18.851562-15.28125 34.132812-34.132813 34.132812s-34.132813-15.28125-34.132813-34.132812c0-18.851563 15.28125-34.136719 34.132813-34.136719s34.132813 15.285156 34.132813 34.136719zm0 0"/><path d="m119.484375 444.183594c0 9.425781-7.640625 17.066406-17.066406 17.066406s-17.066407-7.640625-17.066407-17.066406c0-9.425782 7.640626-17.066406 17.066407-17.066406s17.066406 7.640624 17.066406 17.066406zm0 0"/><path d="m51.21875 401.519531c0 9.425781-7.644531 17.066407-17.070312 17.066407-9.421876 0-17.066407-7.640626-17.066407-17.066407s7.644531-17.066406 17.066407-17.066406c9.425781 0 17.070312 7.640625 17.070312 17.066406zm0 0"/><path d="m192.957031 410.207031-.085937.082031c-.144532 1.296876-.375 2.578126-.683594 3.839844l-8.960938 37.71875c-2.757812 11.554688-9.457031 21.78125-18.941406 28.929688-6.882812-7.730469-10.679687-17.726563-10.667968-28.074219.019531-22.257813 17.148437-40.761719 39.339843-42.496094zm0 0"/></g><path d="m102.417969 418.585938c-14.140625 0-25.601563 11.460937-25.601563 25.597656 0 14.140625 11.460938 25.601562 25.601563 25.601562 14.136719 0 25.597656-11.460937 25.597656-25.601562 0-14.136719-11.460937-25.597656-25.597656-25.597656zm0 34.132812c-4.714844 0-8.535157-3.820312-8.535157-8.535156 0-4.710938 3.820313-8.53125 8.535157-8.53125 4.710937 0 8.53125 3.820312 8.53125 8.53125 0 4.714844-3.820313 8.535156-8.53125 8.535156zm0 0"/><path d="m459.734375 289.398438-33.539063 33.535156c-6.539062 6.570312-17.160156 6.589844-23.730468.050781-6.566406-6.539063-6.589844-17.164063-.050782-23.730469l33.65625-33.601562c11.839844-12.019532 11.753907-31.339844-.191406-43.253906-11.945312-11.914063-31.265625-11.945313-43.25-.070313l-20.730468 20.761719c-1.085938-1.539063-2.285157-2.996094-3.582032-4.363282-14.996094-14.988281-39.304687-14.988281-54.296875 0l-45.226562 45.226563c-6.449219 6.558594-15.917969 9.152344-24.808594 6.796875-8.886719-2.355469-15.832031-9.296875-18.1875-18.1875-2.359375-8.886719.234375-18.355469 6.789063-24.804688l45.226562-45.226562c3.558594-3.546875 6.382812-7.761719 8.308594-12.402344l71.988281-70.730468c11.820313-12.046876 11.785156-31.351563-.085937-43.351563-12.003907-11.894531-31.351563-11.894531-43.355469 0l-33.539063 33.539063c-6.539062 6.566406-17.164062 6.589843-23.730468.050781-6.566407-6.539063-6.589844-17.164063-.050782-23.730469l33.65625-33.589844c7.726563-7.773437 10.71875-19.078125 7.851563-29.65625-2.871094-10.582031-11.164063-18.824218-21.761719-21.628906s-21.882812.257812-29.609375 8.03125l-141.226563 144.546875c-1.8125 1.652344-3.523437 3.417969-5.121093 5.28125l-.121094.117187v.054688c-5.855469 6.753906-10.121094 14.734375-12.492187 23.355469l-3.574219 13.371093c-5.503907 20.625.375 42.621094 15.429687 57.753907l8.863282 8.917969-81.839844 81.867187c-.175782.226563-.332032.460937-.472656.707031-6.988282 7.234375-12.035157 16.121094-14.667969 25.832032l-10.238281 38.066406c-5.496094 20.617187.390624 42.601562 15.460937 57.710937l27.90625 27.871094c11.230469 11.199219 26.445313 17.488281 42.304687 17.492187 5.1875 0 10.351563-.683593 15.363282-2.03125l45.761718-12.261718c7.46875-2.019532 14.472657-5.464844 20.625-10.15625.144532-.117188.324219-.160156.46875-.28125l.0625-.085938c.902344-.699218 1.707032-1.5 2.558594-2.257812.503906-.257813.976563-.566406 1.417969-.921875l54.304687-53.367188c1.382813 13.664063 7.40625 26.441407 17.066407 36.203125l9.8125 9.816406c15.105469 15.085938 37.109375 20.972657 57.730469 15.445313l18.867187-5.042969c6.933594-1.882812 13.472656-4.992187 19.300781-9.191406 1.125-.390625 2.160156-1.011719 3.03125-1.828125l149.109375-143.324219c11.824219-12.046875 11.785157-31.351562-.085937-43.347656-12.011719-11.890625-31.359375-11.878906-43.355469.023438zm-239.25-53.683594c-11.007813 10.734375-15.386719 26.554687-11.472656 41.421875 3.917969 14.863281 15.527343 26.472656 30.394531 30.386719 14.863281 3.914062 30.6875-.46875 41.417969-11.476563l45.226562-45.226563c8.449219-8.039062 21.714844-8.039062 30.164063 0 8.238281 8.339844 8.261718 21.746094.050781 30.113282l-161.355469 158.582031 5.582032-23.40625c.246093-1.046875.355468-2.097656.542968-3.15625.023438-.09375.039063-.1875.050782-.28125 2.09375-11.617187.675781-23.589844-4.070313-34.398437l39.433594-39.433594c3.234375-3.347656 3.1875-8.667969-.101563-11.960938-3.292968-3.292968-8.617187-3.339844-11.964844-.105468l-36.691406 36.695312c-.640625-.75-1.210937-1.546875-1.886718-2.261719l-6.988282-7.390625 14.984375-14.992187c3.234375-3.347657 3.1875-8.671875-.105469-11.960938-3.289062-3.292969-8.613281-3.339843-11.960937-.105469l-14.667969 14.667969-7.945312-8.40625c-.359375-.375-.777344-.679687-1.136719-1.046875l27.308594-27.265625c3.234375-3.347656 3.1875-8.671875-.105469-11.960937-3.289062-3.292969-8.613281-3.339844-11.960938-.105469l-29.011718 29.015625c-13.410156-7.335938-29.128906-9.230469-43.898438-5.300781l-28.378906 7.613281 124.753906-124.800781c.164063-.152344.316406-.300781.460938-.460938l8.671875-8.671875c.09375-.082031.179687-.175781.265625-.269531l29.445312-29.484375c4.003906-4.003906 9.429688-6.25 15.089844-6.25 5.65625 0 11.085938 2.246094 15.085938 6.25 8.25 8.367188 8.25 21.808594 0 30.171875zm119.714844 150.578125c-.019531 9.253906-7.53125 16.738281-16.78125 16.726562s-16.742188-7.515625-16.738281-16.765625c.003906-9.25 7.5-16.746094 16.75-16.753906 9.265624.011719 16.773437 7.527344 16.769531 16.792969zm-178.050781 66.425781c.054687-13.105469 7.582031-25.035156 19.390624-30.71875l-6.648437 27.875c-1.585937 6.566406-4.71875 12.65625-9.128906 17.769531-2.332031-4.632812-3.570313-9.742187-3.613281-14.925781zm-34.132813-110.933594c14.140625 0 25.601563 11.460938 25.601563 25.601563 0 14.136719-11.460938 25.597656-25.601563 25.597656-14.136719 0-25.597656-11.460937-25.597656-25.597656 0-14.140625 11.460937-25.601563 25.597656-25.601563zm-93.867187 51.199219c4.714843 0 8.535156 3.820313 8.535156 8.535156 0 4.710938-3.820313 8.53125-8.535156 8.53125-4.710938 0-8.53125-3.820312-8.53125-8.53125 0-4.714843 3.820312-8.535156 8.53125-8.535156zm144.472656-205.242187c-9.425782 0-17.066406-7.640626-17.066406-17.066407s7.640624-17.066406 17.066406-17.066406c1.582031 0 3.152344.25 4.65625.742187.1875.09375.394531.136719.589844.230469 1.742187.792969 3.414062 1.730469 5 2.796875h.0625l.160156.144532c3.882812 3.253906 6.085937 8.085937 6 13.152343-.019532 2.78125-.714844 5.519531-2.023438 7.976563l-7.289062 7.289062c-2.214844 1.140625-4.664063 1.757813-7.15625 1.800782zm81.066406-166.683594c5.414062-4.640625 13.488281-4.332032 18.535156.707031 5.042969 5.042969 5.359375 13.117187.722656 18.535156l-33.65625 33.546875c-8.894531 8.480469-12.492187 21.125-9.398437 33.019532 3.097656 11.898437 12.402344 21.179687 24.308594 24.246093 11.90625 3.070313 24.535156-.5625 32.996093-9.480469l33.539063-33.535156c5.324219-5.292968 13.925781-5.292968 19.25 0 5.179687 5.34375 5.203125 13.828125.050781 19.199219l-58.617187 57.617187c-1.707031-6.300781-5.015625-12.054687-9.605469-16.699218-7.203125-7.203125-16.96875-11.246094-27.15625-11.246094-10.183594 0-19.949219 4.042969-27.152344 11.246094l-9.445312 9.445312-5.554688-5.859375c-2.660156-2.882812-5.632812-5.460937-8.867187-7.683593l-.117188-.082032-.113281-.09375c-.117188-.105468-.253906-.171875-.382812-.273437l-.257813-.1875c-.179687-.121094-.347656-.214844-.527344-.324219-2.265625-1.75-4.773437-3.15625-7.441406-4.183594-.164063-.085937-.339844-.117187-.511719-.195312s-.582031-.246094-.855468-.382813l29.953124-29.953125c3.234376-3.347656 3.1875-8.671875-.101562-11.960937-3.292969-3.292969-8.617188-3.339844-11.964844-.105469l-34.132812 34.132812c-.816406.820313-1.457032 1.792969-1.886719 2.867188-7.277344-.777344-14.632813-.199219-21.699219 1.707031l-1.84375.496094zm-148.738281 175.214844c4.714843 0 8.535156 3.820312 8.535156 8.535156 0 4.710937-3.820313 8.53125-8.535156 8.53125-4.710938 0-8.53125-3.820313-8.53125-8.53125 0-4.714844 3.820312-8.535156 8.53125-8.535156zm1.453125 45.226562c-3.46875-3.523438-6.300782-7.625-8.371094-12.117188 9.578125 2.644532 19.820312-.503906 26.261719-8.074218 6.4375-7.570313 7.902343-18.1875 3.753906-27.21875-4.152344-9.027344-13.160156-14.835938-23.097656-14.882813-1.078125.039063-2.152344.148438-3.214844.324219 1.460937-3.074219 3.28125-5.964844 5.425781-8.609375l5.1875-5.308594c4.828125-4.214843 10.550782-7.28125 16.734375-8.957031l15.214844-4.105469c-5.59375 8.894531-6.769531 19.878907-3.1875 29.757813 3.585937 9.878906 11.527344 17.550781 21.527344 20.792968l-47.300781 47.300782zm32.03125 239.789062-45.761719 12.203126c-14.726563 3.914062-30.421875-.289063-41.21875-11.042969l-27.867187-27.871094c-8.878907-8.933594-13.363282-21.332031-12.253907-33.875 8.546875 7.46875 20.996094 8.40625 30.5625 2.296875 9.570313-6.105469 13.960938-17.796875 10.777344-28.691406-3.179687-10.898438-13.171875-18.390625-24.523437-18.390625-1.941407.019531-3.875.253906-5.765626.707031l.355469-1.339844c3.972657-14.699218 15.457031-26.1875 30.160157-30.164062l43.519531-11.65625c-15.777344 11.832031-21.355469 32.949218-13.480469 51.027344 7.871094 18.078124 27.136719 28.378906 46.542969 24.886718 19.40625-3.492187 33.871093-19.863281 34.945312-39.554687l2.945313 3.125c7.640625 8.070312 11.8125 18.816406 11.613281 29.925781-15.882813 3.523438-29.128906 14.421875-35.644531 29.332031-6.519532 14.910157-5.519532 32.035157 2.679687 46.085938-2.429687 1.214843-4.96875 2.199219-7.585937 2.933593zm120.117187-29.015624c-4.714843 0-8.535156-3.820313-8.535156-8.53125 0-4.714844 3.820313-8.535157 8.535156-8.535157 4.710938 0 8.53125 3.820313 8.53125 8.535157 0 4.710937-3.820312 8.53125-8.53125 8.53125zm62.820313 18.296874-18.882813 5.042969c-12.808593 3.429688-26.484375.71875-37.015625-7.339843 10.574219-2.921876 18.101563-12.277344 18.6875-23.234376.585938-10.960937-5.898437-21.066406-16.101562-25.101562-10.207032-4.035156-21.847656-1.09375-28.914063 7.300781-.332031-4.609375.101563-9.238281 1.28125-13.703125l.253907-.964844 47.070312-46.253906 3.269531-.851562c-4.761719 5.917968-7.375 13.277344-7.40625 20.871094.039063 17.058593 12.789063 31.410156 29.726563 33.453124 16.933594 2.046876 32.734375-8.855468 36.832031-25.414062 5.675781 9.519531 7.414063 20.871094 4.847656 31.652344l-3.15625 13.300781c-3.652343 15.226563-15.359375 27.21875-30.492187 31.242187zm163.839844-149.972656-113.492188 109.046875c2.230469-9.527343 2.089844-19.460937-.417969-28.917969 1.601563-.28125 3.085938-1.03125 4.265625-2.152343l25.601563-25.601563c3.234375-3.347656 3.1875-8.667968-.105469-11.960937-3.289062-3.292969-8.613281-3.335938-11.960938-.101563l-24.40625 24.402344c-2.199218-3.714844-4.796874-7.179688-7.746093-10.332031l-.214844-.230469 10.300781-10.308594c3.234375-3.347656 3.1875-8.671875-.105468-11.960937-3.289063-3.292969-8.613282-3.339844-11.960938-.105469l-10.15625 10.15625c-10.085938-9.445312-23.148438-15.078125-36.941406-15.941406l54.496094-53.554688c7.222656-7.15625 11.257812-16.917968 11.195312-27.085937-.03125-1.945313-.210938-3.882813-.539062-5.800781l25.753906-25.753907c5.417968-4.644531 13.492187-4.335937 18.535156.707031 5.046875 5.039063 5.363281 13.113282.726562 18.535157l-33.628906 33.542969c-8.898437 8.484374-12.496094 21.125-9.398437 33.023437 3.09375 11.894531 12.402343 21.175781 24.304687 24.246094 11.90625 3.066406 24.539063-.5625 33-9.480469l33.535156-33.539062c5.324219-5.292969 13.925782-5.292969 19.25 0 5.15625 5.316406 5.207032 13.75.121094 19.132812zm0 0"/></svg>
